HIERARCHY
ROOT Hips
{
	OFFSET 0.00 0.00 0.00
	CHANNELS 6 Xposition Yposition Zposition Xrotation Yrotation Zrotation
	JOINT Spine
	{
		OFFSET 0.00000 1.72418 2.58627
		CHANNELS 3 Xrotation Yrotation Zrotation
		JOINT Spine1
		{
			OFFSET 0.00000 0.59880 3.39597
			CHANNELS 3 Xrotation Yrotation Zrotation
			JOINT Spine2
			{
				OFFSET 0.00000 0.30055 3.43524
				CHANNELS 3 Xrotation Yrotation Zrotation
				JOINT Spine3
				{
					OFFSET 0.00000 0.00000 3.44836
					CHANNELS 3 Xrotation Yrotation Zrotation
					JOINT Neck
					{
						OFFSET 0.00000 -1.29313 9.05195
						CHANNELS 3 Xrotation Yrotation Zrotation
						JOINT Head
						{
							OFFSET 0.00000 -0.82335 4.66946
							CHANNELS 3 Xrotation Yrotation Zrotation
							End Site
							{
								OFFSET 0.00000 0.00001 5.58203
							}
						}
					}
					JOINT RightShoulder
					{
						OFFSET -1.18828 -1.98046 6.41673
						CHANNELS 3 Xrotation Yrotation Zrotation
						JOINT RightArm
						{
							OFFSET -5.90180 0.00000 0.00000
							CHANNELS 3 Xrotation Yrotation Zrotation
							JOINT RightForeArm
							{
								OFFSET -11.45951 0.00000 0.00000
								CHANNELS 3 Xrotation Yrotation Zrotation
								JOINT RightHand
								{
									OFFSET -10.63451 0.00000 0.00000
									CHANNELS 3 Xrotation Yrotation Zrotation
									JOINT RightHandEnd
									{
										OFFSET -2.86944 0.00000 0.00000
										CHANNELS 3 Xrotation Yrotation Zrotation
										End Site
										{
											OFFSET -2.86944 0.00000 0.00000
										}
									}
									JOINT RightHandThumb1
									{
										OFFSET -1.14778 -1.91296 -0.76518
										CHANNELS 3 Yrotation Xrotation Zrotation
										End Site
										{
											OFFSET -2.77167 -0.74267 0.00000
										}
									}
								}
							}
						}
					}
					JOINT LeftShoulder
					{
						OFFSET 1.18828 -1.98046 6.41673
						CHANNELS 3 Xrotation Yrotation Zrotation
						JOINT LeftArm
						{
							OFFSET 5.90180 0.00000 0.00000
							CHANNELS 3 Xrotation Yrotation Zrotation
							JOINT LeftForeArm
							{
								OFFSET 11.45951 0.00000 0.00000
								CHANNELS 3 Xrotation Yrotation Zrotation
								JOINT LeftHand
								{
									OFFSET 10.63451 0.00000 0.00000
									CHANNELS 3 Xrotation Yrotation Zrotation
									JOINT LeftHandEnd
									{
										OFFSET 2.86944 0.00000 0.00000
										CHANNELS 3 Xrotation Yrotation Zrotation
										End Site
										{
											OFFSET 2.86944 0.00000 0.00000
										}
									}
									JOINT LeftHandThumb1
									{
										OFFSET 1.14778 -1.91296 -0.76518
										CHANNELS 3 Yrotation Xrotation Zrotation
										End Site
										{
											OFFSET 2.77167 -0.74267 0.00000
										}
									}
								}
							}
						}
					}
				}
			}
		}
	}
	JOINT RightUpLeg
	{
		OFFSET -3.52524 0.00000 -1.02984
		CHANNELS 3 Xrotation Yrotation Zrotation
		JOINT RightLeg
		{
			OFFSET 0.00001 0.00000 -17.80965
			CHANNELS 3 Xrotation Yrotation Zrotation
			JOINT RightFoot
			{
				OFFSET 0.00001 0.00000 -17.00908
				CHANNELS 3 Xrotation Yrotation Zrotation
				JOINT RightToeBase
				{
					OFFSET 0.00000 -5.55853 -2.02314
					CHANNELS 3 Xrotation Yrotation Zrotation
					End Site
					{
						OFFSET 0.00000 -2.85188 -0.00000
					}
				}
			}
		}
	}
	JOINT LeftUpLeg
	{
		OFFSET 3.52524 0.00000 -1.02984
		CHANNELS 3 Xrotation Yrotation Zrotation
		JOINT LeftLeg
		{
			OFFSET 0.00001 0.00000 -17.80965
			CHANNELS 3 Xrotation Yrotation Zrotation
			JOINT LeftFoot
			{
				OFFSET 0.00001 0.00000 -17.00908
				CHANNELS 3 Xrotation Yrotation Zrotation
				JOINT LeftToeBase
				{
					OFFSET 0.00000 -5.55853 -2.02314
					CHANNELS 3 Xrotation Yrotation Zrotation
					End Site
					{
						OFFSET 0.00000 -2.85188 -0.00000
					}
				}
			}
		}
	}
}
MOTION
Frames: 9
Frame Time:	0.0333333
 2.2243 -99.0383 36.4093 -3.1097 1.9251 -179.3861 -1.4842 -0.2616 -0.2995 -0.7675 0.1716 0.0227 4.9998 0.4880 0.2110 1.0783 0.0310 0.0004 -3.0129 1.3564 -0.0220 -3.3304 0.5323 -1.3563 14.7907 -15.7939 2.8005 14.7984 -46.4672 24.8957 0.0000 0.0000 26.5015 -3.2227 12.7469 2.1590 -0.0000 -0.0000 -0.0000 -0.0000 -0.0000 0.0000 17.9815 13.4047 -0.9708 21.0486 50.7333 -30.1771 -0.0000 -0.0000 -28.1714 2.6246 -15.1815 -3.3920 0.0000 0.0000 0.0000 0.0000 0.0000 -0.0000 -6.5684 1.4650 -22.6276 18.1834 0.0000 0.0000 -16.3957 1.6305 -2.0218 -1.5053 0.0000 -0.0000 -3.7375 -3.0409 13.3132 12.9851 0.0000 0.0000 -11.6746 5.7966 3.0023 1.0483 0.0000 0.0000
 2.3201 -98.9763 36.3976 -3.1272 1.9841 -179.1469 -1.5658 -0.2529 -0.3007 -0.7996 0.1904 0.0226 5.0999 0.3980 0.1446 1.0856 0.0291 0.0138 -3.0893 1.2956 -0.0709 -3.6627 0.5525 -1.3815 14.9414 -16.1202 2.6126 19.8598 -47.2579 30.0508 0.0000 0.0000 24.3228 -5.0123 12.7553 2.5371 -0.0000 -0.0000 -0.0000 -0.0000 -0.0000 0.0000 18.7322 13.4415 -0.9771 26.8117 50.4173 -37.2220 -0.0000 -0.0000 -24.6289 -2.0647 -16.4516 -3.7663 0.0000 -0.0000 -0.0000 -0.0000 0.0000 0.0000 -6.5008 1.3553 -22.5576 18.2455 0.0000 0.0000 -16.5803 1.8485 -2.2937 -1.4537 0.0000 -0.0000 -3.6471 -3.1243 13.2628 12.8955 0.0000 0.0000 -11.6186 5.9355 2.8825 1.0250 0.0000 0.0000
 2.4123 -98.9182 36.3839 -3.1013 2.0200 -178.7646 -1.6494 -0.2588 -0.3080 -0.8349 0.2137 0.0192 5.2622 0.2848 0.0126 1.1135 0.0450 0.0134 -3.1522 1.2069 -0.1322 -4.0630 0.5594 -1.3412 15.2074 -16.4593 2.4793 24.1216 -47.3139 34.4433 0.0000 0.0000 22.7115 -7.1200 12.7961 2.7041 -0.0000 0.0000 -0.0000 -0.0000 0.0000 -0.0000 19.3632 13.4487 -1.1146 31.8365 48.7512 -42.9502 -0.0000 -0.0000 -22.2803 -5.8945 -16.2707 -3.8428 0.0000 0.0000 -0.0000 -0.0000 0.0000 -0.0000 -6.3656 1.2279 -22.5661 18.2764 0.0000 0.0000 -16.7707 2.0682 -2.6144 -1.4561 0.0000 -0.0000 -3.5560 -3.2278 13.1174 12.8516 0.0000 0.0000 -11.6433 6.0679 2.7310 1.0794 0.0000 0.0000
 2.5003 -98.8670 36.3681 -3.0265 2.0372 -178.3424 -1.7008 -0.2679 -0.3214 -0.8668 0.2394 0.0110 5.4397 0.1524 -0.2095 1.1502 0.0547 -0.0065 -3.1918 1.1339 -0.1591 -4.3616 0.5352 -1.1873 15.4214 -16.6831 2.4405 28.4167 -46.3025 38.6176 0.0000 0.0000 21.5406 -9.2290 12.6805 2.6879 0.0000 -0.0000 0.0000 -0.0000 -0.0000 0.0000 19.9080 13.3932 -1.3483 35.8996 46.0545 -47.0822 -0.0000 -0.0000 -21.2469 -7.6643 -15.2474 -3.7722 -0.0000 -0.0000 0.0000 -0.0000 -0.0000 0.0000 -6.1818 1.0822 -22.5704 18.2945 0.0000 0.0000 -16.9667 2.3160 -2.9557 -1.4429 0.0000 -0.0000 -3.4576 -3.3531 12.9598 12.8537 0.0000 0.0000 -11.7318 6.2292 2.5155 1.2193 0.0000 0.0000
 2.5844 -98.8267 36.3483 -2.9710 2.0880 -177.9673 -1.7419 -0.2323 -0.3338 -0.8929 0.2781 0.0041 5.5702 0.0047 -0.4667 1.1783 0.0397 -0.0246 -3.1943 1.0890 -0.1742 -4.4990 0.5232 -0.9984 15.5550 -16.7743 2.4133 32.6694 -44.1925 42.4458 0.0000 0.0000 20.9200 -10.2524 12.3721 2.5320 0.0000 -0.0000 0.0000 -0.0000 -0.0000 0.0000 20.4735 13.2403 -1.5853 38.8987 42.7479 -49.7841 -0.0000 -0.0000 -21.3885 -7.1962 -14.2867 -3.6576 -0.0000 -0.0000 0.0000 -0.0000 -0.0000 0.0000 -6.0804 0.9750 -22.4496 18.3944 0.0000 0.0000 -17.2131 2.6067 -3.3427 -1.3653 0.0000 -0.0000 -3.4184 -3.4439 12.7819 12.9064 0.0000 0.0000 -11.7615 6.3676 2.3433 1.2688 0.0000 0.0000
 2.6650 -98.7909 36.3228 -2.9392 2.1916 -177.6695 -1.7854 -0.1448 -0.3408 -0.9196 0.3264 0.0041 5.6599 -0.1558 -0.6784 1.2031 0.0071 -0.0192 -3.1670 1.0524 -0.2231 -4.5865 0.5772 -0.8688 15.7275 -16.8158 2.3618 35.9130 -41.6488 45.1944 0.0000 0.0000 20.9735 -9.7161 12.1500 2.3211 -0.0000 0.0000 -0.0000 -0.0000 -0.0000 0.0000 21.0065 13.0419 -1.8389 40.7310 39.4368 -51.1326 -0.0000 -0.0000 -22.4486 -5.5120 -13.6856 -3.4628 -0.0000 -0.0000 0.0000 0.0000 0.0000 -0.0000 -6.0869 0.9334 -22.1865 18.6422 0.0000 0.0000 -17.5430 2.9255 -3.7878 -1.3233 0.0000 -0.0000 -3.4070 -3.4710 12.5558 12.9902 0.0000 0.0000 -11.8124 6.4628 2.3275 1.2477 0.0000 0.0000
 2.7422 -98.7536 36.2895 -2.9076 2.3321 -177.4696 -1.8445 -0.0144 -0.3387 -0.9450 0.3587 0.0047 5.7573 -0.3280 -0.8198 1.2347 -0.0290 0.0043 -3.1381 0.9867 -0.2968 -4.7091 0.6775 -0.7780 15.9722 -16.8529 2.3849 37.5754 -39.5336 46.4861 0.0000 0.0000 21.5780 -8.6371 12.2419 2.1585 0.0000 0.0000 0.0000 0.0000 0.0000 0.0000 21.3231 12.8957 -2.1702 41.4230 36.7997 -51.2443 -0.0000 -0.0000 -23.9246 -3.8149 -13.2969 -3.2557 0.0000 -0.0000 0.0000 -0.0000 0.0000 0.0000 -6.1863 0.9437 -21.7653 19.0825 0.0000 0.0000 -17.9647 3.2756 -4.3102 -1.3996 0.0000 -0.0000 -3.3942 -3.4665 12.4260 13.1308 0.0000 0.0000 -12.0599 6.6186 2.3262 1.3817 0.0000 0.0000
 2.8190 -98.7164 36.2432 -2.8416 2.5067 -177.3953 -1.8662 0.1586 -0.3295 -0.9554 0.3661 -0.0009 5.8414 -0.4793 -0.9190 1.2673 -0.0709 0.0285 -3.1206 0.8251 -0.3774 -4.8056 0.7685 -0.6315 16.1703 -16.8645 2.5531 37.9617 -38.1544 46.6440 0.0000 0.0000 22.4003 -8.1713 12.5656 2.1124 -0.0000 0.0000 -0.0000 0.0000 0.0000 0.0000 21.3709 12.7618 -2.5387 41.1548 35.2204 -50.5910 -0.0000 -0.0000 -25.1255 -2.6983 -13.0185 -3.1186 0.0000 0.0000 0.0000 0.0000 -0.0000 -0.0000 -6.3768 0.9987 -21.1070 19.7772 0.0000 0.0000 -18.5100 3.6638 -4.9229 -1.5293 0.0000 -0.0000 -3.4476 -3.4748 12.4548 13.5285 0.0000 0.0000 -12.4609 6.8628 2.2356 1.5851 0.0000 0.0000
 2.9041 -98.6852 36.1751 -2.7780 2.6643 -177.4248 -1.8497 0.2949 -0.3179 -0.9353 0.3677 -0.0039 5.8353 -0.5554 -1.0156 1.2840 -0.1149 0.0382 -3.0736 0.5131 -0.4977 -4.8167 0.8295 -0.3970 16.2257 -16.8166 2.8137 37.5377 -37.4889 46.1748 0.0000 0.0000 23.1406 -8.2402 12.9341 2.1284 0.0000 -0.0000 -0.0000 0.0000 -0.0000 0.0000 21.2288 12.4707 -2.8649 40.1416 34.6358 -49.6712 -0.0000 -0.0000 -25.6677 -2.2383 -12.6653 -2.9461 0.0000 -0.0000 0.0000 -0.0000 0.0000 0.0000 -6.7308 1.0274 -20.1525 20.7648 0.0000 0.0000 -19.2146 4.0765 -5.6369 -1.6605 0.0000 -0.0000 -3.8571 -3.5697 12.1924 14.6675 0.0000 0.0000 -13.0663 7.0425 2.4962 1.5436 0.0000 0.0000
